<svg xmlns="http://www.w3.org/2000/svg" xmlns:xlink="http://www.w3.org/1999/xlink" version="1.1" id="Layer_1" x="0px" y="0px" viewBox="0 0 256 256" style="enable-background:new 0 0 256 256;" xml:space="preserve"> <style type="text/css"> .st0{display:none;} .st1{display:inline;fill:#7650FF;} .st2{fill:#7650FF;} </style> <g class="st0"> <path class="st1" d="M91.9,235.1c1.2-4.6,4.2-6,10-4.5c5.8,1.5,7.8,4.1,6.6,8.8l-3.4-0.9c0.7-2.9-0.4-4.4-3.9-5.3 c-3.4-0.9-4.9-0.2-5.6,2.2c-1.4,5.4,12.2,5.4,10.2,13c-1.2,4.6-4.1,6-9.7,4.6c-5.6-1.4-7.5-4.1-6.3-8.8l3.4,0.9 c-0.7,2.8,0.3,4.4,3.6,5.2c3.2,0.8,4.7,0.2,5.3-2.3C103.4,243.4,89.9,243.2,91.9,235.1"/> <path class="st1" d="M59.2,218.8c4.2-3.9,7.9-4.3,12.6-1.3c6.3,4,7.1,8.7,2.8,15.5c-4.3,6.9-8.9,8.1-15.2,4.1 c-5.1-3.3-6.3-6.9-4.2-12l3.3,2.1c-1.1,3.3-0.4,5.4,2.6,7.3c3.9,2.5,6.9,1.4,10.1-3.6s2.8-8.2-1-10.7c-2.8-1.8-5-1.6-7.7,0.7 L59.2,218.8z"/> <polygon class="st1" points="33.1,213.7 49.3,198.9 51.9,201.8 35.8,216.6 "/> <polygon class="st1" points="20.6,191 25.9,188.1 21.1,179.3 23.7,177.9 28.5,186.7 34.6,183.4 29.2,173.4 31.8,172 39.1,185.4 19.8,195.9 12.6,182.5 15.2,181.1 "/> <polygon class="st1" points="1.9,144 23.4,139.9 24.2,144.5 9.5,157.3 26,154.2 26.7,157.9 5.2,162 4.4,157.4 19,144.6 2.5,147.7 "/> <polygon class="st1" points="6.5,105.4 5.7,112 24.3,114.4 23.8,118.3 5.2,115.9 4.4,122.6 1.3,122.2 3.4,105 "/> <polygon class="st1" points="10.7,81.5 31.1,89.4 29.6,93.1 9.2,85.1 "/> <path class="st1" d="M41.8,61.2l-5.2,7.2l3,4.2l-2.3,3.2L24,56.8l3.2-4.4l21.9,7.1l-2.4,3.3L41.8,61.2z M34.9,66l4.1-5.7l-10.8-3.5 L34.9,66z"/> <path class="st1" d="M81.8,26.2L77,28.4l3.4,7.3l-3.5,1.7l-9.2-19.9l8.4-3.9c5.1-2.4,8.4-0.8,10.2,3C87.8,20.2,86.9,23.8,81.8,26.2 M77,16.3l-4.7,2.2l3.4,7.3l4.7-2.2c2.7-1.2,3.2-3.1,2.1-5.4C81.4,15.8,79.7,15,77,16.3"/> <path class="st1" d="M125.8,12.8c0.9,8.1-1.9,11.9-9.4,12.7c-7.5,0.8-11.1-2.3-12-10.4s1.9-11.9,9.4-12.7 C121.3,1.6,124.9,4.8,125.8,12.8 M108.4,14.8c0.7,5.9,2.9,8.2,7.6,7.6s6.4-3.2,5.7-9.1c-0.7-5.9-2.9-8.2-7.6-7.7 S107.8,8.8,108.4,14.8"/> <polygon class="st1" points="160.6,9.6 154.1,8.3 150.4,26.7 146.6,26 150.3,7.5 143.7,6.2 144.4,3.1 161.2,6.5 "/> <polygon class="st1" points="183.4,18.5 180.6,23.8 189.4,28.6 188,31.2 179.2,26.4 175.9,32.6 185.9,37.9 184.5,40.5 171.1,33.4 181.3,14 194.8,21.1 193.4,23.8 "/> <path class="st1" d="M212.2,56.5c-3.4,3.4-6.7,3-10.9-1.2c-4.3-4.3-4.6-7.6-1.2-11l2.5,2.5c-2.1,2.1-1.9,4,0.7,6.5 c2.5,2.5,4.2,2.7,5.9,1c3.9-4-7.7-10.9-2.2-16.4c3.4-3.4,6.6-3.1,10.7,1c4.1,4.1,4.4,7.3,1,10.8l-2.5-2.5c2.1-2.1,1.9-3.9-0.4-6.3 c-2.3-2.3-3.9-2.5-5.7-0.7C206.5,43.5,218.1,50.6,212.2,56.5"/> <polygon class="st1" points="240.4,77.7 237.2,71.8 220.8,80.8 218.9,77.4 235.4,68.4 232.2,62.5 234.9,61 243.2,76.2 "/> <path class="st1" d="M235.8,109.5l-1.9-8.6l-5.1-0.5l-0.9-3.9l23,2.5l1.2,5.3l-19.8,11.8l-0.9-4L235.8,109.5z M236.8,101.1l1.5,6.9 l9.8-5.8L236.8,101.1z"/> <path class="st1" d="M237.7,147.4c-4.8-0.4-6.6-3.2-6.1-9.2c0.5-6,2.8-8.4,7.6-8l-0.3,3.5c-2.9-0.2-4.2,1.1-4.5,4.7 c-0.3,3.5,0.6,4.9,3.1,5.1c5.6,0.5,3.3-12.9,11.1-12.3c4.8,0.4,6.6,3.1,6.1,8.9c-0.5,5.8-2.8,8.1-7.6,7.7l0.3-3.6 c2.9,0.2,4.2-1,4.5-4.4c0.3-3.2-0.6-4.6-3.1-4.9C244,134.6,246,148.1,237.7,147.4"/> <polygon class="st1" points="233.1,194.6 228.1,191.3 222.6,199.7 220.1,198.1 225.6,189.7 219.8,185.9 213.6,195.4 211.1,193.8 219.4,181 237.8,192.9 229.5,205.7 227,204.1 "/> <path class="st1" d="M192.9,220.1c-3.1-3.7-2.4-6.9,2.2-10.8c4.6-3.9,7.9-4,11-0.3l-2.7,2.3c-1.9-2.3-3.8-2.2-6.5,0.1 c-2.6,2.2-3,3.9-1.4,5.8c3.6,4.3,11.5-6.8,16.5-0.8c3.1,3.7,2.5,6.9-1.9,10.6c-4.4,3.7-7.7,3.8-10.8,0.1l2.7-2.3 c1.9,2.2,3.7,2.3,6.3,0.1c2.5-2.1,2.8-3.7,1.2-5.6C206.3,215.5,198.3,226.4,192.9,220.1"/> <polygon class="st1" points="169.4,246.5 175.5,243.8 168,226.6 171.6,225 179.1,242.2 185.2,239.6 186.4,242.5 170.6,249.4 "/> <path class="st1" d="M148.3,234.5c-0.3-1.5,0.2-2.3,1.7-2.6c1.5-0.3,2.3,0.2,2.6,1.7c0.3,1.5-0.2,2.3-1.7,2.6 C149.5,236.5,148.6,236,148.3,234.5"/> <path class="st1" d="M93.3,163.1v-47.7h13.5v48c0,9.3-7.5,16.8-16.8,16.8c-9.3,0-16.8-7.5-16.8-16.8V79.6h13.5v83.5 c0,2.3,1.5,3.7,3.3,3.7C91.8,166.8,93.3,165.5,93.3,163.1"/> <path class="st1" d="M162,84.4c-2.6-2.9-6.3-4.7-10.5-4.7h-2.9v13.8h4.7v14.6h11.3V95.6c0-1.3,1.1-2.4,2.4-2.4 c1.3,0,2.4,1.1,2.4,2.4v67.6c0,2.3-1.5,3.7-3.3,3.7s-3.3-1.4-3.3-3.7v-47.7h-13.5v48c0,9.3,7.5,16.9,16.8,16.9 c9.3,0,16.8-7.5,16.8-16.9V92.1c0-6.6-5.3-11.9-11.9-11.9C167.4,80.2,164.2,81.8,162,84.4"/> <path class="st1" d="M137.4,106.5c-0.2-0.3-0.7-0.8-0.9-1c2.7-2.8,7.4-8.3,7.4-15c0-7.6-6.1-14.8-15.6-14.8 c-8.2,0-15.6,6-15.6,14.7c0,11.7,11.7,17.5,16.9,27.2c1.5,2.9,2,8.6,2,12.2v33.3c0,2.3-1.5,3.7-3.3,3.7s-3.3-1.4-3.3-3.7v-47.7 h-13.5v48c0,9.3,7.5,16.9,16.8,16.9c9.3,0,16.8-7.5,16.8-16.9V128C145,118.7,141.6,111.3,137.4,106.5 M128.7,98.2 c-2.5-2.4-4.3-4.9-4.3-8c0-3.3,1.3-5.1,3.8-5.1s3.8,1.8,3.8,5.1C132.1,93.5,130.8,96,128.7,98.2"/> </g> <g> <g> <path class="st2" d="M92,235.6c1.2-4.7,4.2-6,10-4.5c5.9,1.5,7.8,4.2,6.6,8.8l-3.4-0.9c0.7-2.9-0.4-4.4-3.9-5.3 c-3.4-0.9-5-0.2-5.6,2.2c-1.4,5.4,12.2,5.4,10.2,13.1c-1.2,4.7-4.1,6-9.7,4.6c-5.6-1.4-7.5-4.1-6.3-8.8l3.5,0.9 c-0.7,2.8,0.3,4.4,3.6,5.2c3.2,0.8,4.7,0.2,5.3-2.3C103.5,244,90,243.7,92,235.6"/> <path class="st2" d="M59.2,219.3c4.2-3.9,8-4.3,12.7-1.3c6.3,4,7.1,8.7,2.8,15.6c-4.3,6.9-8.9,8.1-15.2,4.1 c-5.1-3.3-6.3-6.9-4.2-12.1l3.3,2.1c-1.1,3.3-0.4,5.4,2.6,7.3c3.9,2.5,6.9,1.4,10.1-3.6c3.2-5,2.9-8.2-1-10.7 c-2.8-1.8-5-1.6-7.7,0.7L59.2,219.3z"/> <polygon class="st2" points="33.2,214.2 49.4,199.3 52,202.2 35.8,217.1 "/> <polygon class="st2" points="20.6,191.5 25.9,188.6 21.2,179.7 23.7,178.3 28.5,187.2 34.6,183.9 29.3,173.9 31.9,172.5 39.1,185.9 19.9,196.4 12.6,183 15.2,181.5 "/> <polygon class="st2" points="1.9,144.4 23.4,140.4 24.2,144.9 9.5,157.8 26.1,154.7 26.7,158.3 5.2,162.4 4.4,157.9 19.1,145 2.5,148.1 "/> <polygon class="st2" points="6.6,105.8 5.7,112.4 24.3,114.8 23.8,118.7 5.2,116.3 4.4,123 1.3,122.6 3.4,105.4 "/> <polygon class="st2" points="10.7,81.8 31.1,89.8 29.7,93.5 9.3,85.5 "/> <path class="st2" d="M41.8,61.5l-5.2,7.2l3,4.2l-2.3,3.2l-13.3-19l3.2-4.4l21.9,7.1l-2.4,3.4L41.8,61.5z M35,66.3l4.1-5.7 l-10.8-3.6L35,66.3z"/> <path class="st2" d="M81.9,26.5l-4.8,2.3l3.4,7.3l-3.5,1.7l-9.2-20l8.4-3.9c5.1-2.4,8.5-0.8,10.2,3C87.9,20.5,87,24.1,81.9,26.5 M77.1,16.6l-4.7,2.2l3.4,7.3l4.7-2.2c2.7-1.3,3.2-3.1,2.1-5.4C81.5,16.1,79.8,15.3,77.1,16.6"/> <path class="st2" d="M125.9,13.1c0.9,8.1-2,11.9-9.5,12.8c-7.5,0.8-11.1-2.3-12-10.4c-0.9-8.1,1.9-11.9,9.5-12.8 C121.4,1.9,125,5,125.9,13.1 M108.5,15c0.7,5.9,2.9,8.2,7.6,7.7c4.7-0.5,6.4-3.2,5.7-9.1c-0.7-5.9-2.9-8.2-7.6-7.7 C109.6,6.4,107.9,9.1,108.5,15"/> <polygon class="st2" points="160.8,9.9 154.3,8.6 150.6,27 146.8,26.3 150.4,7.8 143.9,6.5 144.5,3.4 161.4,6.8 "/> <polygon class="st2" points="183.6,18.7 180.8,24.1 189.6,28.8 188.3,31.5 179.4,26.7 176.1,32.9 186.1,38.2 184.7,40.8 171.3,33.7 181.6,14.3 195,21.4 193.6,24.1 "/> <path class="st2" d="M212.4,56.8c-3.4,3.4-6.7,3-10.9-1.2c-4.3-4.3-4.6-7.6-1.2-11l2.5,2.5c-2.1,2.1-1.9,4,0.7,6.5 c2.5,2.5,4.2,2.7,5.9,0.9c3.9-4-7.7-10.9-2.2-16.5c3.4-3.4,6.6-3.1,10.7,1c4.1,4.1,4.4,7.3,1,10.8l-2.5-2.5 c2.1-2.1,1.9-3.9-0.4-6.3c-2.3-2.3-3.9-2.5-5.7-0.7C206.8,43.8,218.3,50.9,212.4,56.8"/> <polygon class="st2" points="240.7,78 237.5,72.2 221.1,81.2 219.2,77.7 235.6,68.7 232.4,62.8 235.2,61.3 243.5,76.5 "/> <path class="st2" d="M236.1,109.8l-1.9-8.6l-5.2-0.5l-0.9-3.9l23,2.5l1.2,5.3l-19.8,11.8l-0.9-4L236.1,109.8z M237,101.5l1.5,6.9 l9.8-5.8L237,101.5z"/> <path class="st2" d="M238,147.8c-4.8-0.4-6.6-3.2-6.1-9.2c0.5-6,2.8-8.4,7.6-8l-0.3,3.5c-2.9-0.2-4.2,1.1-4.5,4.7 c-0.3,3.5,0.6,4.9,3.1,5.2c5.6,0.5,3.3-13,11.1-12.3c4.8,0.4,6.6,3.1,6.1,8.9c-0.5,5.8-2.8,8.1-7.6,7.7l0.3-3.6 c2.9,0.2,4.2-1,4.5-4.4c0.3-3.3-0.6-4.7-3.1-4.9C244.3,135,246.3,148.5,238,147.8"/> <polygon class="st2" points="233.4,195.1 228.3,191.8 222.9,200.2 220.4,198.6 225.9,190.2 220,186.4 213.9,195.9 211.4,194.2 219.7,181.4 238,193.4 229.8,206.2 227.3,204.6 "/> <path class="st2" d="M193.1,220.6c-3.1-3.7-2.4-6.9,2.2-10.8c4.6-3.9,7.9-4,11-0.3l-2.7,2.3c-1.9-2.3-3.8-2.2-6.5,0.1 c-2.7,2.3-3,3.9-1.4,5.8c3.6,4.3,11.5-6.8,16.5-0.8c3.1,3.7,2.5,6.9-1.9,10.6c-4.4,3.7-7.7,3.8-10.8,0.1l2.7-2.3 c1.9,2.2,3.7,2.3,6.3,0.1c2.5-2.1,2.8-3.7,1.2-5.6C206.5,216,198.5,227,193.1,220.6"/> <polygon class="st2" points="169.6,247 175.7,244.3 168.2,227.1 171.8,225.5 179.3,242.8 185.4,240.1 186.6,243 170.8,249.9 "/> <path class="st2" d="M148.5,235c-0.3-1.5,0.2-2.3,1.7-2.6c1.5-0.3,2.3,0.2,2.6,1.7c0.3,1.5-0.2,2.3-1.7,2.6 C149.6,237,148.8,236.5,148.5,235"/> </g> <g> <path class="st2" d="M169.7,79.3l0,83.5c0,2.3-1.5,3.7-3.4,3.7s-3.4-1.4-3.4-3.7l0-83.5l-13.6,0l0,82.6c0,10.9,7.6,17,17,17 c9.4,0,17-6.1,17-17l0-82.6L169.7,79.3z"/> <polygon class="st2" points="120.8,79.3 110.6,79.3 110.6,92.3 120.8,92.3 120.8,178 134.4,178 134.4,92.3 144.5,92.3 144.5,79.3 134.4,79.3 "/> <path class="st2" d="M94.4,113.8h-3.2l0,11.8h3.2l0,36.3c0,1.3-1.1,3.8-3.8,3.8c-2.8,0-3.9-2.5-3.9-3.8l0-67.3 c0-2.3,1.5-3.7,3.3-3.7c1.8,0,3.3,1.4,3.3,3.7l0,8.6l13.6,0l0-8.4c0-10.8-7.6-16.9-16.9-16.9S73,84,73,94.9l0,69.1 c0,8.1,4.3,14.9,13.6,14.9c6.5,0,9.8-4.2,10.3-7.5l0,6.6l9.9,0l0-52.4h0l0-11.8h0L94.4,113.8z"/> </g> </g> </svg>